<svg id="Capa_1" data-name="Capa 1" xmlns="http://www.w3.org/2000/svg" viewBox="0 0 748.35 158.29"><defs><style>.cls-1{fill:#9e9e9e;}.cls-2{fill:#d9b576;}.cls-3{fill:#eac300;}.cls-4{fill:#bf28bf;}.cls-5{fill:#f39200;}.cls-6{fill:#d8cf1a;}</style></defs><rect class="cls-1" y="63.4" width="136.06" height="31.94"/><rect class="cls-1" x="612.28" y="63.4" width="136.06" height="31.94"/><path class="cls-2" d="M790.78,461.81V619.64h-100a15.36,15.36,0,0,1-15.37-15.35V477.17a15.37,15.37,0,0,1,15.37-15.36Z" transform="translate(-585.55 -461.35)"/><path class="cls-2" d="M1249.42,476.71V603.82a15.34,15.34,0,0,1-15.35,15.36h-100V461.35h100A15.35,15.35,0,0,1,1249.42,476.71Z" transform="translate(-585.55 -461.35)"/><rect class="cls-2" x="251.24" y="19.76" width="251.27" height="118.31"/><polygon class="cls-2" points="251.24 19.76 251.24 138.07 220.83 151.43 205.23 158.29 205.23 0.46 220.83 7 251.24 19.76"/><polygon class="cls-2" points="548.51 0 502.51 19.3 502.51 137.61 548.51 157.83 548.51 0"/><polygon class="cls-3" points="220.83 7 220.83 151.43 205.23 158.29 188.51 158.29 188.51 0.46 205.23 0.46 220.83 7"/><rect class="cls-4" x="265.62" y="19.76" width="32.31" height="118.31"/><rect class="cls-5" x="337.71" y="19.76" width="32.32" height="118.31"/><rect class="cls-6" x="460.36" y="19.76" width="32.31" height="118.31"/></svg>